<?xml version="1.0" encoding="UTF-8" standalone="no"?><!DOCTYPE svg PUBLIC "-//W3C//DTD SVG 1.1//EN" "http://www.w3.org/Graphics/SVG/1.1/DTD/svg11.dtd"><svg width="100%" height="100%" viewBox="0 0 565 574" version="1.1" xmlns="http://www.w3.org/2000/svg" xmlns:xlink="http://www.w3.org/1999/xlink" xml:space="preserve" xmlns:serif="http://www.serif.com/" style="fill-rule:evenodd;clip-rule:evenodd;stroke-linecap:round;stroke-linejoin:round;stroke-miterlimit:1.5;"><g id="Plume"><path d="M560.625,4.37c9.879,21.219 -6.702,56.587 -32.862,97.076l-48.84,20.604l46.44,-13.855c-7.959,12.894 -31.509,44.837 -40.512,51.113c-22.145,9.337 -37.578,9.74 -52.222,10.566l-0.228,-0.033c12.842,3.039 26.965,3.503 44.551,-2.27c-7.959,12.894 -24.391,47.48 -36.687,49.094c-25.017,3.284 -41.11,-8.318 -55.622,-9.093l-3.441,3.645c22.485,9.64 43.384,9.263 58.352,10.425c-11.673,15.201 -18.744,18.866 -30.35,27.926c-10.016,7.819 -38.914,3.439 -51.249,-3.98l-0.099,-0.055c7.161,10.786 22.015,13.495 48.088,11.336c-10.893,7.26 -36.494,32.286 -45.629,33.6c-21.529,3.097 -38.536,-5.89 -46.28,-15.531l-1.89,0c9.944,19.724 43.363,22.72 56.736,23.617c-13.809,3.05 -41.281,2.809 -59.521,-19.22l-1.552,1.732c10.107,14.46 21.493,22.13 50.206,22.727c-6.19,24.969 -61.02,37.678 -81.247,5.184l-3.001,3.015c0.036,0.065 0.39,0.777 0.426,0.842c9.649,17.149 22.131,24.353 46.21,23.934c-9.792,14.959 -25.402,24.642 -44.166,24.302c-10.474,-2.546 -18.165,-6.278 -20.56,-8.673c1.867,9.713 20.345,12.966 31.691,14.786c-7.751,14.698 -25.002,10.636 -34.952,7.713c-14.587,-4.286 -17.469,-5.838 -26.75,-15.166l-1.59,2.277c6.693,12.924 17.976,22.189 36.79,34.467c-17.031,-4.393 -29.786,-11.679 -44.464,-26.338l-1.759,1.863c4.856,6.842 24,25.877 43.035,27.589c-6.871,11.706 -42.621,-3.212 -50.828,-4.893l23.411,14.642c-7.886,4.048 -22.526,-1.112 -35.491,-10.567c-0.307,5.449 17.98,11.221 28.505,24.573c-6.943,-5.257 -20.525,-7.858 -35.039,-8.93c16.314,6.862 16.402,7.687 20.779,11.229c-23.209,1.167 -24.456,8.355 -41.153,0.463l-0.462,-0.09c-2.908,1.43 -44.358,65.462 -44.584,70.703c-0.074,1.737 -1.058,3.952 0.223,5.755c-2.213,-0.237 -4.713,1.7 -7.302,4.306c81.658,-172.336 370.241,-349.793 444.889,-502.41c-16.471,-11.806 -47.428,8.625 -90.887,42.3c11.978,14.202 14.387,32.389 18.625,49.815c-6.747,-13.173 -13.512,-53.752 -23.688,-45.58c-4.105,3.296 -9.65,9.059 -10.152,17.153c-0.376,6.068 -2.57,24.606 -3.528,59.289l-0.522,-63.112c-21.637,18.222 -42.891,30.354 -53.911,45.64c-11.502,26.87 -13.225,59.929 -2.463,77.744c-0.351,-0.391 -0.692,-0.783 -1.024,-1.176c-12.249,-14.484 -12.197,-29.991 -8.912,-47.645c0.257,-1.382 4.109,-20.974 4.245,-21.751c-28.561,13.709 -61.901,59.448 -66.201,85.293c-3.022,18.16 7.12,43.636 13.293,50.124l0,0.581c-30.719,-24.953 -15.64,-77.566 -10.516,-78.382c0.082,-2.713 -49.425,47.791 -59.444,80.434c-7.892,25.718 -2.289,51.589 5.371,58.905l-1.02,0c-14.272,-17.007 -15.074,-39.766 -13.36,-64.387c-4.687,23.147 -9.774,48.668 1.759,76.254l-1.612,1.167c-14.937,-12.813 -7.499,-70.503 -5.713,-73.272c-8.773,11.558 -42.097,39.751 -51.441,71.265c-7.647,25.792 -2.873,49.475 4.786,56.791l-5.219,5.529l-14.979,-44.051c-6.251,-3.484 -10.505,32.389 -9.224,56.727l-8.271,-23.288c-6.496,22.833 -2.696,38.869 -1.392,51.412c92.338,-106.165 192.826,-193.136 277.726,-281.34c18.911,-19.648 41.398,-37.11 58.589,-57.28c23.288,-27.325 38.789,-57.811 59.085,-85.159Z" style="fill:#1d88e0;stroke:#053782;stroke-width:2px;"/></g><g id="Block-Chain" serif:id="Block Chain"><g id="Bottom-Right-Cube" serif:id="Bottom Right Cube"><path d="M122.529,550.821l7.558,18.517l19.815,2.713l-7.408,-18.517l-19.965,-2.713Z" style="fill:#7688a0;stroke:#053782;stroke-width:2px;"/><path d="M142.344,553.534l-19.815,-2.713l10.342,-13.334l1.616,-2.084l0.252,-0.325l0.047,-0.06l0.15,-0.193l19.815,2.713l-12.407,15.996Z" style="fill:#1d88e0;stroke:#053782;stroke-width:2px;"/><path d="M162.309,556.055l-7.558,-18.517l-12.257,15.803l7.558,18.517l10.342,-13.334l1.616,-2.084l0.252,-0.325l0.047,-0.06" style="fill:#7688a0;stroke:#053782;stroke-width:2px;"/></g><g id="Bottom-Center-Cube" serif:id="Bottom Center Cube"><g id="Cube"><path d="M75.253,543.676l7.558,18.517l19.815,2.713l-7.409,-18.517l-19.964,-2.713Z" style="fill:#7688a0;stroke:#053782;stroke-width:2px;"/><path d="M95.068,546.389l-19.815,-2.713l12.257,-15.804l0.149,-0.193l19.816,2.713l-12.407,15.997Z" style="fill:#1d88e0;stroke:#053782;stroke-width:2px;"/><path d="M115.033,548.909l-7.558,-18.517l-1.916,2.469l-10.342,13.335l7.558,18.517l12.258,-15.804" style="fill:#7688a0;stroke:#053782;stroke-width:2px;"/></g><g id="Top-Link" serif:id="Top Link"><path d="M88.279,538.779c-1.299,-1.007 -1.506,-2.916 -0.464,-4.261c1.043,-1.344 2.944,-1.618 4.243,-0.611c1.298,1.007 1.506,2.916 0.463,4.261c-1.043,1.344 -2.944,1.618 -4.242,0.611Z" style="fill:#fff;stroke:#053782;stroke-width:2px;"/><path d="M90.004,536.208l-5.002,-12.121" style="fill:none;stroke:#053782;stroke-width:2px;"/><path d="M90.868,535.093l-3.67,-8.914" style="fill:none;stroke:#fff;stroke-width:0.46px;"/><path d="M88.489,535.716l-2.965,-7.175" style="fill:none;stroke:#fff;stroke-width:0.46px;"/></g><g id="Right-Link" serif:id="Right Link"><path d="M103.712,552.198c-1.299,-1.007 -1.506,-2.917 -0.463,-4.261c1.043,-1.345 2.943,-1.619 4.242,-0.612c1.299,1.007 1.506,2.917 0.463,4.261c-1.043,1.345 -2.944,1.619 -4.242,0.612Z" style="fill:#fff;stroke:#053782;stroke-width:2px;"/><path d="M105.69,549.823l17.65,2.073" style="fill:none;stroke:#053782;stroke-width:2px;"/><path d="M106.442,548.678l9.429,1.087" style="fill:none;stroke:#fff;stroke-width:0.46px;"/><path d="M106.307,551.118l10.677,1.246" style="fill:none;stroke:#fff;stroke-width:0.46px;"/></g></g><g id="Bottom-Left-Cube" serif:id="Bottom Left Cube"><g id="Cube1" serif:id="Cube"><path d="M30.192,536.455l7.557,18.517l19.816,2.713l-7.409,-18.517l-19.964,-2.713Z" style="fill:#7688a0;stroke:#053782;stroke-width:2px;"/><path d="M50.007,539.168l-19.815,-2.713l12.257,-15.804l0.149,-0.193l19.815,2.713l-12.406,15.997Z" style="fill:#1d88e0;stroke:#053782;stroke-width:2px;"/><path d="M69.971,541.688l-7.558,-18.517l-12.257,15.804l7.558,18.517l12.257,-15.804" style="fill:#7688a0;stroke:#053782;stroke-width:2px;"/></g><g id="Right-Link1" serif:id="Right Link"><path d="M58.651,544.977c-1.299,-1.007 -1.506,-2.916 -0.463,-4.261c1.042,-1.345 2.943,-1.619 4.242,-0.611c1.298,1.007 1.506,2.916 0.463,4.261c-1.043,1.344 -2.944,1.618 -4.242,0.611Z" style="fill:#fff;stroke:#053782;stroke-width:2px;"/><g><path d="M60.629,542.603l14.907,1.675" style="fill:none;stroke:#053782;stroke-width:2px;"/><path d="M61.381,541.457l9.429,1.087" style="fill:none;stroke:#fff;stroke-width:0.46px;"/><path d="M61.246,543.897l10.677,1.246" style="fill:none;stroke:#fff;stroke-width:0.46px;"/></g></g><g id="Top-Link1" serif:id="Top Link"><path d="M45.218,531.559c-1.299,-1.008 -1.507,-2.917 -0.464,-4.262c1.043,-1.344 2.944,-1.618 4.243,-0.611c1.298,1.007 1.506,2.916 0.463,4.261c-1.043,1.345 -2.944,1.619 -4.242,0.612Z" style="fill:#fff;stroke:#053782;stroke-width:2px;"/><g><path d="M46.943,528.988l-5.549,-13.495" style="fill:none;stroke:#053782;stroke-width:2px;"/><path d="M47.807,527.873l-3.67,-8.915" style="fill:none;stroke:#fff;stroke-width:0.46px;"/><path d="M45.428,528.495l-3.712,-8.947" style="fill:none;stroke:#fff;stroke-width:0.46px;"/></g></g></g><g id="Middle-Right-Cube" serif:id="Middle Right Cube"><g id="Cube2" serif:id="Cube"><path d="M59.265,502.857l7.557,18.517l19.816,2.713l0.149,-0.193l-7.558,-18.517l-19.964,-2.52Z" style="fill:#7688a0;stroke:#053782;stroke-width:2px;"/><path d="M71.671,486.86l19.815,2.713l-12.257,15.804l-0.149,0.193l-19.815,-2.713l12.257,-15.804" style="fill:#1d88e0;stroke:#053782;stroke-width:2px;"/><path d="M91.486,489.573l7.558,18.517l-12.257,15.804l-7.444,-18.324l12.143,-15.997Z" style="fill:#7688a0;stroke:#053782;stroke-width:2px;"/></g><g id="Right-Link2" serif:id="Right Link"><path d="M88.113,509.685c-1.298,-1.007 -1.506,-2.916 -0.463,-4.261c1.043,-1.344 2.944,-1.618 4.243,-0.611c1.298,1.007 1.506,2.916 0.463,4.261c-1.043,1.345 -2.944,1.619 -4.243,0.611Z" style="fill:#fff;stroke:#053782;stroke-width:2px;"/><path d="M90.092,507.311l17.65,2.073" style="fill:none;stroke:#053782;stroke-width:2px;"/><path d="M90.843,506.166l9.429,1.087" style="fill:#fff;stroke:#fff;stroke-width:0.46px;"/><path d="M90.708,508.605l10.678,1.246" style="fill:#fff;stroke:#fff;stroke-width:0.46px;"/></g></g><g id="Middle-Left-Cube" serif:id="Middle Left Cube"><g id="Cube3" serif:id="Cube"><path d="M15.983,494.263l7.558,18.517l19.815,2.713l-7.408,-18.967l-19.965,-2.263Z" style="fill:#7688a0;stroke:#053782;stroke-width:2px;"/><path d="M28.39,478.266l19.815,2.713l-12.257,15.804l-0.15,0.193l-19.815,-2.713l12.257,-15.804" style="fill:#1d88e0;stroke:#053782;stroke-width:2px;"/><path d="M48.205,480.979l7.558,18.517l-12.257,15.804l-7.558,-18.517l12.257,-15.804Z" style="fill:#7688a0;stroke:#053782;stroke-width:2px;"/></g><g id="Top-Link2" serif:id="Top Link"><path d="M31.009,489.367c-1.298,-1.007 -1.506,-2.917 -0.463,-4.261c1.043,-1.345 2.944,-1.619 4.242,-0.612c1.299,1.007 1.506,2.917 0.463,4.261c-1.042,1.345 -2.943,1.619 -4.242,0.612Z" style="fill:#fff;stroke:#053782;stroke-width:2px;"/><path d="M32.734,486.796l-6.065,-14.673" style="fill:none;stroke:#053782;stroke-width:2px;"/><path d="M33.599,485.681l-3.67,-8.915" style="fill:none;stroke:#fff;stroke-width:0.46px;"/><path d="M31.22,486.304l-3.713,-8.948" style="fill:none;stroke:#fff;stroke-width:0.46px;"/></g><g id="Right-Link3" serif:id="Right Link"><path d="M44.442,502.785c-1.298,-1.007 -1.506,-2.916 -0.463,-4.261c1.043,-1.344 2.944,-1.618 4.243,-0.611c1.298,1.007 1.506,2.916 0.463,4.261c-1.043,1.344 -2.944,1.618 -4.243,0.611Z" style="fill:#fff;stroke:#053782;stroke-width:2px;"/><path d="M46.418,500.437l13.618,1.519" style="fill:none;stroke:#053782;stroke-width:2px;"/><path d="M47.172,499.265l9.429,1.087" style="fill:none;stroke:#fff;stroke-width:0.46px;"/><path d="M47.037,501.705l7.967,0.934" style="fill:none;stroke:#fff;stroke-width:0.46px;"/></g></g><g id="Top-Cube" serif:id="Top Cube"><path d="M1,450.893l7.558,18.517l19.815,2.713l-7.408,-18.517l-19.965,-2.713Z" style="fill:#7688a0;stroke:#053782;stroke-width:2px;"/><path d="M20.815,453.606l-19.815,-2.713l12.257,-15.804l0.15,-0.193l19.815,2.713l-12.407,15.997Z" style="fill:#1d88e0;stroke:#053782;stroke-width:2px;"/><path d="M40.78,456.126l-7.558,-18.517l-12.257,15.804l7.558,18.517l12.257,-15.804" style="fill:#7688a0;stroke:#053782;stroke-width:2px;"/></g></g></svg>