<?xml version="1.0" encoding="UTF-8" standalone="no"?><!DOCTYPE svg PUBLIC "-//W3C//DTD SVG 1.1//EN" "http://www.w3.org/Graphics/SVG/1.1/DTD/svg11.dtd"><svg width="100%" height="100%" viewBox="0 0 475 536" version="1.1" xmlns="http://www.w3.org/2000/svg" xmlns:xlink="http://www.w3.org/1999/xlink" xml:space="preserve" xmlns:serif="http://www.serif.com/" style="fill-rule:evenodd;clip-rule:evenodd;stroke-linecap:round;stroke-linejoin:round;stroke-miterlimit:1.5;"><g><path d="M281.046,222.762c23.72,10.17 45.766,9.771 61.556,10.997c-12.314,16.037 -19.773,19.903 -32.016,29.46c-10.567,8.248 -41.052,3.628 -54.064,-4.198" style="fill:none;stroke:#000;stroke-width:2px;"/><path d="M470.323,4.555c10.421,22.385 -7.07,59.694 -34.668,102.407" style="fill:none;stroke:#000;stroke-width:2px;"/><path d="M470.323,4.555c-78.749,160.998 -383.18,348.202 -469.323,530.002" style="fill:none;stroke:#000;stroke-width:2px;"/><path d="M53.207,451.608c-1.375,-13.232 -5.383,-30.149 1.469,-54.235l8.725,24.566c-1.351,-25.675 3.136,-63.518 9.731,-59.842l15.801,46.47" style="fill:none;stroke:#000;stroke-width:2px;"/><path d="M470.323,4.555c-17.376,-12.454 -50.034,9.099 -95.879,44.623c12.636,14.982 15.178,34.168 19.648,52.551c-7.118,-13.896 -14.254,-56.704 -24.989,-48.083c-4.33,3.477 -10.18,9.556 -10.709,18.095c-0.397,6.401 -2.712,25.957 -3.722,62.545" style="fill:none;stroke:#000;stroke-width:2px;"/><path d="M354.672,134.286l-0.551,-66.578c-22.825,19.223 -45.247,32.02 -56.871,48.147c-12.135,28.345 -13.952,63.219 -2.599,82.013" style="fill:none;stroke:#000;stroke-width:2px;"/><path d="M384.134,128.698l48.99,-14.616c-8.397,13.603 -33.24,47.3 -42.736,53.92c-23.363,9.85 -39.643,10.275 -55.091,11.146" style="fill:none;stroke:#000;stroke-width:2px;"/><path d="M335.057,179.114c13.547,3.205 28.446,3.695 46.997,-2.395c-8.396,13.602 -25.731,50.088 -38.702,51.791c-26.39,3.463 -43.367,-8.776 -58.677,-9.593" style="fill:none;stroke:#000;stroke-width:2px;"/><path d="M256.417,258.962c7.555,11.379 23.225,14.237 50.729,11.959c-11.491,7.659 -38.498,34.059 -48.134,35.445c-22.711,3.267 -40.652,-6.214 -48.822,-16.383" style="fill:none;stroke:#000;stroke-width:2px;"/><path d="M435.54,106.749l-51,21.519" style="fill:none;stroke:#000;stroke-width:2px;"/><path d="M294.651,197.868c-14.002,-15.635 -14.041,-32.374 -10.482,-51.502c0.271,-1.458 4.335,-22.126 4.478,-22.946c-30.129,14.462 -65.3,62.713 -69.836,89.978c-3.188,19.157 7.511,46.032 14.023,52.876" style="fill:none;stroke:#000;stroke-width:2px;"/><path d="M149.683,344.942c-15.757,-13.517 -7.911,-74.376 -6.026,-77.297c-9.255,12.193 -44.41,41.935 -54.267,75.18c-8.066,27.208 -3.031,52.192 5.049,59.909" style="fill:none;stroke:#000;stroke-width:2px;"/><path d="M232.834,266.887c-32.406,-26.323 -16.499,-81.826 -11.094,-82.686c0.087,-2.863 -52.14,50.415 -62.708,84.851c-8.326,27.13 -2.415,54.422 5.665,62.139" style="fill:none;stroke:#000;stroke-width:2px;"/><path d="M55.989,449.453c17.613,8.325 18.928,0.742 43.412,-0.489c-4.617,-3.736 -4.71,-4.606 -21.92,-11.845c15.311,1.13 29.639,3.874 36.964,9.42c-11.104,-14.085 -30.395,-20.175 -30.071,-25.922c13.677,9.974 29.121,15.416 37.44,11.146l-24.696,-15.445c8.657,1.772 46.371,17.51 53.618,5.162c-20.08,-1.807 -40.275,-21.888 -45.397,-29.105" style="fill:none;stroke:#000;stroke-width:2px;"/><path d="M107.194,390.41c15.484,15.463 28.94,23.15 46.906,27.784c-19.847,-12.953 -31.75,-22.726 -38.811,-36.359" style="fill:none;stroke:#000;stroke-width:2px;"/><path d="M205.258,294.621c19.242,23.239 48.222,23.493 62.79,20.276c-14.107,-0.946 -49.361,-4.107 -59.851,-24.914" style="fill:none;stroke:#000;stroke-width:2px;"/><path d="M170.875,325.891c21.338,34.28 79.179,20.872 85.709,-5.467c-30.29,-0.631 -42.301,-8.722 -52.963,-23.976" style="fill:none;stroke:#000;stroke-width:2px;"/><path d="M167.709,329.072c0.039,0.069 0.412,0.82 0.45,0.889c10.178,18.091 23.346,25.691 48.748,25.248c-10.33,15.781 -26.797,25.996 -46.592,25.637c-11.05,-2.686 -19.163,-6.623 -21.689,-9.15c1.97,10.247 21.462,13.678 33.431,15.599c-8.176,15.505 -26.374,11.22 -36.871,8.136c-15.389,-4.521 -18.429,-6.159 -28.219,-15.999" style="fill:none;stroke:#000;stroke-width:2px;"/><path d="M163.622,331.191c-15.056,-17.94 -15.902,-41.949 -14.094,-67.922c-4.945,24.418 -10.311,51.341 1.856,80.442" style="fill:none;stroke:#000;stroke-width:2px;"/><path d="M1,534.557c2.731,-2.749 5.369,-4.792 7.704,-4.543c-1.352,-1.902 -0.314,-4.238 -0.235,-6.07c0.238,-5.529 43.964,-73.078 47.032,-74.586" style="fill:none;stroke:#000;stroke-width:2px;"/></g></svg>