<?xml version="1.0" encoding="UTF-8" standalone="no"?><!DOCTYPE svg PUBLIC "-//W3C//DTD SVG 1.1//EN" "http://www.w3.org/Graphics/SVG/1.1/DTD/svg11.dtd"><svg width="100%" height="100%" viewBox="0 0 600 600" version="1.1" xmlns="http://www.w3.org/2000/svg" xmlns:xlink="http://www.w3.org/1999/xlink" xml:space="preserve" xmlns:serif="http://www.serif.com/" style="fill-rule:evenodd;clip-rule:evenodd;stroke-linecap:round;stroke-linejoin:round;stroke-miterlimit:1.5;"><g id="Go-Variant" serif:id="Go Variant"><rect id="Plume" x="0" y="0" width="600" height="600" style="fill:none;"/><g id="Plume1" serif:id="Plume"><path d="M533.503,36.365c10.438,22.42 -7.081,59.788 -34.722,102.567l-51.602,21.77l49.067,-14.639c-8.41,13.624 -33.292,47.374 -42.803,54.004c-23.399,9.866 -39.705,10.292 -55.177,11.164l-0.241,-0.035c13.569,3.211 28.491,3.701 47.071,-2.398c-8.409,13.624 -25.771,50.166 -38.762,51.872c-26.432,3.469 -43.435,-8.79 -58.769,-9.608l-3.635,3.851c23.757,10.186 45.838,9.786 61.652,11.014c-12.333,16.062 -19.803,19.934 -32.066,29.506c-10.583,8.262 -41.116,3.634 -54.148,-4.205l-0.105,-0.058c7.566,11.397 23.261,14.259 50.808,11.978c-11.509,7.671 -38.558,34.112 -48.209,35.5c-22.747,3.272 -40.716,-6.223 -48.898,-16.409l-1.997,0c10.506,20.839 45.816,24.005 59.945,24.953c-14.59,3.222 -43.616,2.968 -62.888,-20.308l-1.64,1.83c10.679,15.278 22.709,23.382 53.046,24.013c-6.54,26.381 -64.472,39.81 -85.843,5.477l-3.171,3.186c0.039,0.068 0.412,0.821 0.451,0.889c10.194,18.12 23.382,25.731 48.824,25.288c-10.346,15.805 -26.839,26.037 -46.665,25.677c-11.067,-2.69 -19.193,-6.633 -21.723,-9.164c1.973,10.263 21.496,13.7 33.484,15.623c-8.19,15.529 -26.416,11.237 -36.929,8.149c-15.413,-4.528 -18.458,-6.168 -28.264,-16.024l-1.68,2.406c7.072,13.655 18.993,23.444 38.871,36.417c-17.994,-4.642 -31.47,-12.34 -46.978,-27.828l-1.859,1.969c5.131,7.228 25.357,27.34 45.469,29.149c-7.259,12.368 -45.032,-3.394 -53.703,-5.17l24.735,15.47c-8.332,4.277 -23.8,-1.174 -37.498,-11.164c-0.325,5.757 18.996,11.856 30.117,25.963c-7.336,-5.554 -21.686,-8.303 -37.021,-9.435c17.237,7.25 17.33,8.122 21.954,11.864c-24.522,1.232 -25.839,8.828 -43.48,0.489l-0.489,-0.095c-3.073,1.51 -46.867,69.166 -47.105,74.703c-0.079,1.834 -1.118,4.175 0.235,6.08c-2.338,-0.25 -4.98,1.796 -7.716,4.55c86.278,-182.085 391.185,-369.581 470.057,-530.831c-17.403,-12.474 -50.112,9.113 -96.029,44.693c12.656,15.005 15.202,34.221 19.679,52.633c-7.129,-13.918 -14.277,-56.793 -25.028,-48.159c-4.337,3.483 -10.196,9.572 -10.726,18.124c-0.397,6.411 -2.716,25.997 -3.728,62.643l-0.551,-66.683c-22.861,19.254 -45.318,32.071 -56.961,48.223c-12.153,28.389 -13.973,63.318 -2.603,82.141c-0.37,-0.413 -0.73,-0.828 -1.081,-1.242c-12.942,-15.304 -12.888,-31.688 -9.417,-50.34c0.272,-1.461 4.342,-22.161 4.485,-22.982c-30.176,14.484 -65.402,62.811 -69.946,90.118c-3.192,19.188 7.524,46.104 14.046,52.959l0,0.614c-32.457,-26.365 -16.525,-81.954 -11.112,-82.816c0.088,-2.866 -52.221,50.495 -62.806,84.985c-8.339,27.172 -2.418,54.507 5.675,62.236l-1.078,0c-15.079,-17.969 -15.927,-42.015 -14.116,-68.029c-4.952,24.456 -10.326,51.421 1.859,80.568l-1.703,1.233c-15.782,-13.538 -7.923,-74.492 -6.036,-77.418c-9.27,12.213 -44.479,42.001 -54.351,75.297c-8.08,27.251 -3.036,52.274 5.056,60.004l-5.514,5.841l-15.826,-46.542c-6.605,-3.682 -11.099,34.22 -9.746,59.935l-8.739,-24.604c-6.863,24.124 -2.848,41.067 -1.471,54.319c97.562,-112.17 203.735,-204.061 293.437,-297.255c19.981,-20.759 43.74,-39.209 61.903,-60.52c24.606,-28.87 40.984,-61.081 62.428,-89.976Z" style="fill:url(#_Linear1);stroke:#ce3262;stroke-width:2.5px;"/></g></g><defs><linearGradient id="_Linear1" x1="0" y1="0" x2="1" y2="0" gradientUnits="userSpaceOnUse" gradientTransform="matrix(473.107,2.08332e-13,3.52977e-13,534.391,63.4463,300)"><stop offset="0" style="stop-color:#00a29c;stop-opacity:1"/><stop offset="1" style="stop-color:#00add8;stop-opacity:1"/></linearGradient></defs></svg>